<?xml version="1.0" encoding="UTF-8" standalone="no"?>
<!-- Created with Inkscape (http://www.inkscape.org/) -->

<svg
   xmlns:dc="http://purl.org/dc/elements/1.1/"
   xmlns:cc="http://creativecommons.org/ns#"
   xmlns:rdf="http://www.w3.org/1999/02/22-rdf-syntax-ns#"
   xmlns:svg="http://www.w3.org/2000/svg"
   xmlns="http://www.w3.org/2000/svg"
   version="1.1"
   width="277.5"
   height="276.25"
   id="svg3039"
   xml:space="preserve"><metadata
     id="metadata3045"><rdf:RDF><cc:Work
         rdf:about=""><dc:format>image/svg+xml</dc:format><dc:type
           rdf:resource="http://purl.org/dc/dcmitype/StillImage" /><dc:title></dc:title></cc:Work></rdf:RDF></metadata><defs
     id="defs3043"><clipPath
       id="clipPath3053"><path
         d="M 0,221 222,221 222,0 0,0 0,221 z"
         id="path3055" /></clipPath><clipPath
       id="clipPath3141"><path
         d="M 0,221 222,221 222,0 0,0 0,221 z"
         id="path3143" /></clipPath><clipPath
       id="clipPath3149"><path
         d="m 118.76,159.65 41.57,0 0,-41.82 -41.57,0 0,41.82 z"
         id="path3151" /></clipPath><clipPath
       id="clipPath3177"><path
         d="M 0,221 222,221 222,0 0,0 0,221 z"
         id="path3179" /></clipPath><clipPath
       id="clipPath3185"><path
         d="m 118.47,103.87 41.82,0 0,-41.5702 -41.82,0 0,41.5702 z"
         id="path3187" /></clipPath><clipPath
       id="clipPath3213"><path
         d="M 0,221 222,221 222,0 0,0 0,221 z"
         id="path3215" /></clipPath><clipPath
       id="clipPath3221"><path
         d="m 63.3398,103.65 41.5802,0 0,-41.8199 -41.5802,0 0,41.8199 z"
         id="path3223" /></clipPath><clipPath
       id="clipPath3249"><path
         d="M 0,221 222,221 222,0 0,0 0,221 z"
         id="path3251" /></clipPath><clipPath
       id="clipPath3257"><path
         d="m 62.6499,158.7 41.8201,0 0,-41.58 -41.8201,0 0,41.58 z"
         id="path3259" /></clipPath><clipPath
       id="clipPath3317"><path
         d="M 0,221 222,221 222,0 0,0 0,221 z"
         id="path3319" /></clipPath><clipPath
       id="clipPath3325"><path
         d="m 99.5,194.33 25,0 0,-76.5 -25,0 0,76.5 z"
         id="path3327" /></clipPath><clipPath
       id="clipPath3353"><path
         d="M 0,221 222,221 222,0 0,0 0,221 z"
         id="path3355" /></clipPath><clipPath
       id="clipPath3361"><path
         d="m 27.7202,123.08 76.4998,0 0,-24.9999 -76.4998,0 0,24.9999 z"
         id="path3363" /></clipPath><clipPath
       id="clipPath3389"><path
         d="M 0,221 222,221 222,0 0,0 0,221 z"
         id="path3391" /></clipPath><clipPath
       id="clipPath3397"><path
         d="m 118.76,123.08 76.5,0 0,-24.9999 -76.5,0 0,24.9999 z"
         id="path3399" /></clipPath><clipPath
       id="clipPath3425"><path
         d="M 0,221 222,221 222,0 0,0 0,221 z"
         id="path3427" /></clipPath><clipPath
       id="clipPath3433"><path
         d="m 98.9702,103.55 24.9998,0 0,-76.5002 -24.9998,0 0,76.5002 z"
         id="path3435" /></clipPath><clipPath
       id="clipPath3461"><path
         d="M 0,221 222,221 222,0 0,0 0,221 z"
         id="path3463" /></clipPath><clipPath
       id="clipPath3485"><path
         d="M 0,221 222,221 222,0 0,0 0,221 z"
         id="path3487" /></clipPath></defs><g
     transform="matrix(1.25,0,0,-1.25,0,276.25)"
     id="g3047"><g
       id="g3049"><g
         clip-path="url(#clipPath3053)"
         id="g3051"><g
           transform="translate(167.9541,111)"
           id="g3057"><path
             d="m 0,0 c 0,-31.1 -25.211,-56.311 -56.31,-56.311 -31.1,0 -56.311,25.211 -56.311,56.311 0,31.099 25.211,56.31 56.311,56.31 C -25.211,56.31 0,31.099 0,0 z"
             id="path3059"
             style="fill:none;stroke:#000000;stroke-width:1;stroke-linecap:butt;stroke-linejoin:miter;stroke-miterlimit:10;stroke-opacity:1;stroke-dasharray:none" /></g><g
           transform="translate(160.334,111)"
           id="g3061"><path
             d="m 0,0 c 0,-26.869 -21.78,-48.649 -48.648,-48.649 -26.869,0 -48.65,21.78 -48.65,48.649 0,26.868 21.781,48.648 48.65,48.648 C -21.78,48.648 0,26.868 0,0 z"
             id="path3063"
             style="fill:none;stroke:#000000;stroke-width:1;stroke-linecap:butt;stroke-linejoin:miter;stroke-miterlimit:10;stroke-opacity:1;stroke-dasharray:none" /></g><g
           transform="translate(152.667,110.833)"
           id="g3065"><path
             d="m 0,0 c 0,-22.644 -18.355,-41.001 -41,-41.001 -22.644,0 -41,18.357 -41,41.001 0,22.644 18.356,41 41,41 C -18.355,41 0,22.644 0,0 z"
             id="path3067"
             style="fill:none;stroke:#000000;stroke-width:1;stroke-linecap:butt;stroke-linejoin:miter;stroke-miterlimit:10;stroke-opacity:1;stroke-dasharray:none" /></g><g
           transform="translate(146,110.833)"
           id="g3069"><path
             d="m 0,0 c 0,-18.594 -15.072,-33.667 -33.666,-33.667 -18.594,0 -33.667,15.073 -33.667,33.667 0,18.594 15.073,33.667 33.667,33.667 C -15.072,33.667 0,18.594 0,0 z"
             id="path3071"
             style="fill:none;stroke:#000000;stroke-width:1;stroke-linecap:butt;stroke-linejoin:miter;stroke-miterlimit:10;stroke-opacity:1;stroke-dasharray:none" /></g><g
           transform="translate(82.8047,127.0127)"
           id="g3073"><path
             d="M 0,0 -13.456,7.964"
             id="path3075"
             style="fill:none;stroke:#000000;stroke-width:0.5;stroke-linecap:butt;stroke-linejoin:miter;stroke-miterlimit:10;stroke-opacity:1;stroke-dasharray:none" /></g><g
           transform="translate(80.0264,101.3457)"
           id="g3077"><path
             d="M 0,0 -15.253,-3.266"
             id="path3079"
             style="fill:none;stroke:#000000;stroke-width:0.5;stroke-linecap:butt;stroke-linejoin:miter;stroke-miterlimit:10;stroke-opacity:1;stroke-dasharray:none" /></g><g
           transform="translate(79.8242,119.605)"
           id="g3081"><path
             d="M 0,0 -15.274,3.475"
             id="path3083"
             style="fill:none;stroke:#000000;stroke-width:0.5;stroke-linecap:butt;stroke-linejoin:miter;stroke-miterlimit:10;stroke-opacity:1;stroke-dasharray:none" /></g><g
           transform="translate(83.0972,94.1377)"
           id="g3085"><path
             d="M 0,0 -13.298,-7.893"
             id="path3087"
             style="fill:none;stroke:#000000;stroke-width:0.5;stroke-linecap:butt;stroke-linejoin:miter;stroke-miterlimit:10;stroke-opacity:1;stroke-dasharray:none" /></g><g
           transform="translate(95.1499,81.8779)"
           id="g3089"><path
             d="M 0,0 -7.855,-12.979"
             id="path3091"
             style="fill:none;stroke:#000000;stroke-width:0.5;stroke-linecap:butt;stroke-linejoin:miter;stroke-miterlimit:10;stroke-opacity:1;stroke-dasharray:none" /></g><g
           transform="translate(102.5693,78.6055)"
           id="g3093"><path
             d="M 0,0 -3.599,-14.575"
             id="path3095"
             style="fill:none;stroke:#000000;stroke-width:0.5;stroke-linecap:butt;stroke-linejoin:miter;stroke-miterlimit:10;stroke-opacity:1;stroke-dasharray:none" /></g><g
           transform="translate(120.334,78.123)"
           id="g3097"><path
             d="M 0,0 3.636,-14.206"
             id="path3099"
             style="fill:none;stroke:#000000;stroke-width:0.5;stroke-linecap:butt;stroke-linejoin:miter;stroke-miterlimit:10;stroke-opacity:1;stroke-dasharray:none" /></g><g
           transform="translate(128.7187,81.4189)"
           id="g3101"><path
             d="M 0,0 7.354,-12.52"
             id="path3103"
             style="fill:none;stroke:#000000;stroke-width:0.5;stroke-linecap:butt;stroke-linejoin:miter;stroke-miterlimit:10;stroke-opacity:1;stroke-dasharray:none" /></g><g
           transform="translate(141.208,93.5127)"
           id="g3105"><path
             d="M 0,0 12.451,-7.118"
             id="path3107"
             style="fill:none;stroke:#000000;stroke-width:0.5;stroke-linecap:butt;stroke-linejoin:miter;stroke-miterlimit:10;stroke-opacity:1;stroke-dasharray:none" /></g><g
           transform="translate(144.6416,101.3457)"
           id="g3109"><path
             d="M 0,0 13.955,-3.266"
             id="path3111"
             style="fill:none;stroke:#000000;stroke-width:0.5;stroke-linecap:butt;stroke-linejoin:miter;stroke-miterlimit:10;stroke-opacity:1;stroke-dasharray:none" /></g><g
           transform="translate(94.6987,139.5156)"
           id="g3113"><path
             d="M 0,0 -7.484,13.538"
             id="path3115"
             style="fill:none;stroke:#000000;stroke-width:0.5;stroke-linecap:butt;stroke-linejoin:miter;stroke-miterlimit:10;stroke-opacity:1;stroke-dasharray:none" /></g><g
           transform="translate(128.7187,140.2466)"
           id="g3117"><path
             d="M 0,0 7.435,12.807"
             id="path3119"
             style="fill:none;stroke:#000000;stroke-width:0.5;stroke-linecap:butt;stroke-linejoin:miter;stroke-miterlimit:10;stroke-opacity:1;stroke-dasharray:none" /></g><g
           transform="translate(102.5693,143.0591)"
           id="g3121"><path
             d="M 0,0 -3.599,14.908"
             id="path3123"
             style="fill:none;stroke:#000000;stroke-width:0.5;stroke-linecap:butt;stroke-linejoin:miter;stroke-miterlimit:10;stroke-opacity:1;stroke-dasharray:none" /></g><g
           transform="translate(121.084,143.3481)"
           id="g3125"><path
             d="M 0,0 3.317,14.619"
             id="path3127"
             style="fill:none;stroke:#000000;stroke-width:0.5;stroke-linecap:butt;stroke-linejoin:miter;stroke-miterlimit:10;stroke-opacity:1;stroke-dasharray:none" /></g><g
           transform="translate(141.25,128.0806)"
           id="g3129"><path
             d="M 0,0 12.713,7.004"
             id="path3131"
             style="fill:none;stroke:#000000;stroke-width:0.5;stroke-linecap:butt;stroke-linejoin:miter;stroke-miterlimit:10;stroke-opacity:1;stroke-dasharray:none" /></g><g
           transform="translate(144.6416,120.3252)"
           id="g3133"><path
             d="M 0,0 14.179,2.755"
             id="path3135"
             style="fill:none;stroke:#000000;stroke-width:0.5;stroke-linecap:butt;stroke-linejoin:miter;stroke-miterlimit:10;stroke-opacity:1;stroke-dasharray:none" /></g></g></g><g
       id="g3137"><g
         clip-path="url(#clipPath3141)"
         id="g3139"><g
           id="g3145"><g
             id="g3147" /><g
             id="g3153"><g
               clip-path="url(#clipPath3149)"
               id="g3155"><g
                 transform="translate(160.3301,159.6499)"
                 id="g3157"><path
                   d="m 0,0 -29.83,-41.82 -5.95,5.58 L 0,0 z"
                   id="path3159"
                   style="fill:#000000;fill-opacity:1;fill-rule:nonzero;stroke:none" /></g><g
                 transform="translate(160.3301,159.6499)"
                 id="g3161"><path
                   d="m 0,0 -35.78,-36.24 -5.79,5.42 L 0,0 z"
                   id="path3163"
                   style="fill:#ffffff;fill-opacity:1;fill-rule:nonzero;stroke:none" /></g></g></g></g></g></g><g
       transform="translate(124.5498,123.4102)"
       id="g3165"><path
         d="M 0,0 -5.79,5.42 35.78,36.24 5.95,-5.58 0,0 z"
         id="path3167"
         style="fill:none;stroke:#000000;stroke-width:1;stroke-linecap:butt;stroke-linejoin:miter;stroke-miterlimit:10;stroke-opacity:1;stroke-dasharray:none" /></g><g
       transform="translate(112.1299,110.8301)"
       id="g3169"><path
         d="M 0,0 12.42,12.58 48.2,48.82"
         id="path3171"
         style="fill:none;stroke:#000000;stroke-width:1;stroke-linecap:butt;stroke-linejoin:miter;stroke-miterlimit:10;stroke-opacity:1;stroke-dasharray:none" /></g><g
       id="g3173"><g
         clip-path="url(#clipPath3177)"
         id="g3175"><g
           id="g3181"><g
             id="g3183" /><g
             id="g3189"><g
               clip-path="url(#clipPath3185)"
               id="g3191"><g
                 transform="translate(160.29,62.2998)"
                 id="g3193"><path
                   d="m 0,0 -41.82,29.83 5.58,5.95 L 0,0 z"
                   id="path3195"
                   style="fill:#000000;fill-opacity:1;fill-rule:nonzero;stroke:none" /></g><g
                 transform="translate(124.0498,98.0801)"
                 id="g3197"><path
                   d="M 0,0 5.42,5.79 36.24,-35.78 0,0 z"
                   id="path3199"
                   style="fill:#ffffff;fill-opacity:1;fill-rule:nonzero;stroke:none" /></g></g></g></g></g></g><g
       transform="translate(124.0498,98.0801)"
       id="g3201"><path
         d="M 0,0 5.42,5.79 36.24,-35.78 -5.58,-5.95 0,0 z"
         id="path3203"
         style="fill:none;stroke:#000000;stroke-width:1;stroke-linecap:butt;stroke-linejoin:miter;stroke-miterlimit:10;stroke-opacity:1;stroke-dasharray:none" /></g><g
       transform="translate(111.4697,110.5)"
       id="g3205"><path
         d="M 0,0 12.58,-12.42 48.82,-48.2"
         id="path3207"
         style="fill:none;stroke:#000000;stroke-width:1;stroke-linecap:butt;stroke-linejoin:miter;stroke-miterlimit:10;stroke-opacity:1;stroke-dasharray:none" /></g><g
       id="g3209"><g
         clip-path="url(#clipPath3213)"
         id="g3211"><g
           id="g3217"><g
             id="g3219" /><g
             id="g3225"><g
               clip-path="url(#clipPath3221)"
               id="g3227"><g
                 transform="translate(63.3398,61.8301)"
                 id="g3229"><path
                   d="M 0,0 29.84,41.82 35.79,36.24 0,0 z"
                   id="path3231"
                   style="fill:#000000;fill-opacity:1;fill-rule:nonzero;stroke:none" /></g><g
                 transform="translate(104.9199,92.6504)"
                 id="g3233"><path
                   d="M 0,0 -41.58,-30.82 -5.79,5.42 0,0 z"
                   id="path3235"
                   style="fill:#ffffff;fill-opacity:1;fill-rule:nonzero;stroke:none" /></g></g></g></g></g></g><g
       transform="translate(99.1299,98.0703)"
       id="g3237"><path
         d="M 0,0 5.79,-5.42 -35.79,-36.24 -5.95,5.58 0,0 z"
         id="path3239"
         style="fill:none;stroke:#000000;stroke-width:1;stroke-linecap:butt;stroke-linejoin:miter;stroke-miterlimit:10;stroke-opacity:1;stroke-dasharray:none" /></g><g
       transform="translate(111.5498,110.6504)"
       id="g3241"><path
         d="M 0,0 -12.42,-12.58 -48.21,-48.82"
         id="path3243"
         style="fill:none;stroke:#000000;stroke-width:1;stroke-linecap:butt;stroke-linejoin:miter;stroke-miterlimit:10;stroke-opacity:1;stroke-dasharray:none" /></g><g
       id="g3245"><g
         clip-path="url(#clipPath3249)"
         id="g3247"><g
           id="g3253"><g
             id="g3255" /><g
             id="g3261"><g
               clip-path="url(#clipPath3257)"
               id="g3263"><g
                 transform="translate(98.8901,122.9199)"
                 id="g3265"><path
                   d="M 0,0 -5.43,-5.8 -36.24,35.78 0,0 z"
                   id="path3267"
                   style="fill:#ffffff;fill-opacity:1;fill-rule:nonzero;stroke:none" /></g><g
                 transform="translate(62.6499,158.7002)"
                 id="g3269"><path
                   d="M 0,0 41.82,-29.84 36.24,-35.78 0,0 z"
                   id="path3271"
                   style="fill:#000000;fill-opacity:1;fill-rule:nonzero;stroke:none" /></g></g></g></g></g></g><g
       transform="translate(98.8901,122.9199)"
       id="g3273"><path
         d="M 0,0 -5.43,-5.8 -36.24,35.78 5.58,5.94 0,0 z"
         id="path3275"
         style="fill:none;stroke:#000000;stroke-width:1;stroke-linecap:butt;stroke-linejoin:miter;stroke-miterlimit:10;stroke-opacity:1;stroke-dasharray:none" /></g><g
       transform="translate(111.4697,110.5)"
       id="g3277"><path
         d="M 0,0 -12.58,12.42 -48.82,48.2"
         id="path3279"
         style="fill:none;stroke:#000000;stroke-width:1;stroke-linecap:butt;stroke-linejoin:miter;stroke-miterlimit:10;stroke-opacity:1;stroke-dasharray:none" /></g><g
       transform="translate(126.3779,141.4316)"
       id="g3281"><path
         d="M 0,0 8.289,24.902 -3.647,1.428"
         id="path3283"
         style="fill:#020000;fill-opacity:1;fill-rule:nonzero;stroke:#000000;stroke-width:0.25;stroke-linecap:butt;stroke-linejoin:miter;stroke-miterlimit:10;stroke-opacity:1;stroke-dasharray:none" /></g><g
       transform="translate(97.0195,141.4316)"
       id="g3285"><path
         d="M 0,0 -8.289,24.902 3.647,1.428"
         id="path3287"
         style="fill:#020000;fill-opacity:1;fill-rule:nonzero;stroke:#000000;stroke-width:0.25;stroke-linecap:butt;stroke-linejoin:miter;stroke-miterlimit:10;stroke-opacity:1;stroke-dasharray:none" /></g><g
       transform="translate(126.3975,79.916)"
       id="g3289"><path
         d="M 0,0 8.289,-24.902 -3.647,-1.428"
         id="path3291"
         style="fill:#020000;fill-opacity:1;fill-rule:nonzero;stroke:#000000;stroke-width:0.25;stroke-linecap:butt;stroke-linejoin:miter;stroke-miterlimit:10;stroke-opacity:1;stroke-dasharray:none" /></g><g
       transform="translate(97.0195,80.791)"
       id="g3293"><path
         d="M 0,0 -8.289,-24.902 3.647,-1.428"
         id="path3295"
         style="fill:#020000;fill-opacity:1;fill-rule:nonzero;stroke:#000000;stroke-width:0.25;stroke-linecap:butt;stroke-linejoin:miter;stroke-miterlimit:10;stroke-opacity:1;stroke-dasharray:none" /></g><g
       transform="translate(144.2578,99.3623)"
       id="g3297"><path
         d="M 0,0 23.494,-11.699 -1.562,-3.594"
         id="path3299"
         style="fill:#020000;fill-opacity:1;fill-rule:nonzero;stroke:#000000;stroke-width:0.25;stroke-linecap:butt;stroke-linejoin:miter;stroke-miterlimit:10;stroke-opacity:1;stroke-dasharray:none" /></g><g
       transform="translate(80.3154,99.9873)"
       id="g3301"><path
         d="M 0,0 -23.494,-11.699 1.562,-3.594"
         id="path3303"
         style="fill:#020000;fill-opacity:1;fill-rule:nonzero;stroke:#000000;stroke-width:0.25;stroke-linecap:butt;stroke-linejoin:miter;stroke-miterlimit:10;stroke-opacity:1;stroke-dasharray:none" /></g><g
       transform="translate(80.3154,121.1631)"
       id="g3305"><path
         d="M 0,0 -23.494,11.699 1.562,3.594"
         id="path3307"
         style="fill:#020000;fill-opacity:1;fill-rule:nonzero;stroke:#000000;stroke-width:0.25;stroke-linecap:butt;stroke-linejoin:miter;stroke-miterlimit:10;stroke-opacity:1;stroke-dasharray:none" /></g><g
       transform="translate(144.2578,121.7881)"
       id="g3309"><path
         d="M 0,0 23.494,11.699 -1.562,3.594"
         id="path3311"
         style="fill:#020000;fill-opacity:1;fill-rule:nonzero;stroke:#000000;stroke-width:0.25;stroke-linecap:butt;stroke-linejoin:miter;stroke-miterlimit:10;stroke-opacity:1;stroke-dasharray:none" /></g><g
       id="g3313"><g
         clip-path="url(#clipPath3317)"
         id="g3315"><g
           id="g3321"><g
             id="g3323" /><g
             id="g3329"><g
               clip-path="url(#clipPath3325)"
               id="g3331"><g
                 transform="translate(111.6904,194.0298)"
                 id="g3333"><path
                   d="m 0,0 0,-76.2 -12.19,0 L -0.051,0.3 0,0 z"
                   id="path3335"
                   style="fill:#ffffff;fill-opacity:1;fill-rule:nonzero;stroke:none" /></g><g
                 transform="translate(111.6904,194.0298)"
                 id="g3337"><path
                   d="M 0,0 12.81,-76.2 0,-76.2 0,0 z"
                   id="path3339"
                   style="fill:#000000;fill-opacity:1;fill-rule:nonzero;stroke:none" /></g></g></g></g></g></g><g
       transform="translate(111.6904,117.8301)"
       id="g3341"><path
         d="M 0,0 -12.19,0 -0.051,76.5 0,76.2 12.81,0 0,0 z"
         id="path3343"
         style="fill:none;stroke:#000000;stroke-width:1;stroke-linecap:butt;stroke-linejoin:miter;stroke-miterlimit:10;stroke-opacity:1;stroke-dasharray:none" /></g><g
       transform="translate(111.6904,115.5)"
       id="g3345"><path
         d="m 0,0 0,2.33 0,76.2 0,0.3"
         id="path3347"
         style="fill:none;stroke:#000000;stroke-width:1;stroke-linecap:butt;stroke-linejoin:miter;stroke-miterlimit:10;stroke-opacity:1;stroke-dasharray:none" /></g><g
       id="g3349"><g
         clip-path="url(#clipPath3353)"
         id="g3351"><g
           id="g3357"><g
             id="g3359" /><g
             id="g3365"><g
               clip-path="url(#clipPath3361)"
               id="g3367"><g
                 transform="translate(104.2202,110.8096)"
                 id="g3369"><path
                   d="M 0,0 0,-12.729 -76.5,-0.59 0,0 z"
                   id="path3371"
                   style="fill:#ffffff;fill-opacity:1;fill-rule:nonzero;stroke:none" /></g><g
                 transform="translate(27.7202,110.2197)"
                 id="g3373"><path
                   d="M 0,0 76.5,12.86 76.5,0.59 0,0 z"
                   id="path3375"
                   style="fill:#000000;fill-opacity:1;fill-rule:nonzero;stroke:none" /></g></g></g></g></g></g><g
       transform="translate(104.2202,110.8096)"
       id="g3377"><path
         d="M 0,0 0,-12.729 -76.5,-0.59 0,12.271 0,0 z"
         id="path3379"
         style="fill:none;stroke:#000000;stroke-width:1;stroke-linecap:butt;stroke-linejoin:miter;stroke-miterlimit:10;stroke-opacity:1;stroke-dasharray:none" /></g><g
       transform="translate(106.8799,110.8301)"
       id="g3381"><path
         d="M 0,0 -2.66,-0.021 -79.16,-0.61"
         id="path3383"
         style="fill:none;stroke:#000000;stroke-width:1;stroke-linecap:butt;stroke-linejoin:miter;stroke-miterlimit:10;stroke-opacity:1;stroke-dasharray:none" /></g><g
       id="g3385"><g
         clip-path="url(#clipPath3389)"
         id="g3387"><g
           id="g3393"><g
             id="g3395" /><g
             id="g3401"><g
               clip-path="url(#clipPath3397)"
               id="g3403"><g
                 transform="translate(195.2598,110.9404)"
                 id="g3405"><path
                   d="m 0,0 -0.3,-0.051 -76.2,0 0,12.191 L 0,0 z"
                   id="path3407"
                   style="fill:#ffffff;fill-opacity:1;fill-rule:nonzero;stroke:none" /></g><g
                 transform="translate(194.96,110.8896)"
                 id="g3409"><path
                   d="M 0,0 -76.2,-12.81 -76.2,0 0,0 z"
                   id="path3411"
                   style="fill:#000000;fill-opacity:1;fill-rule:nonzero;stroke:none" /></g></g></g></g></g></g><g
       transform="translate(118.7598,110.8896)"
       id="g3413"><path
         d="M 0,0 0,12.19 76.5,0.051 76.2,0 0,-12.81 0,0 z"
         id="path3415"
         style="fill:none;stroke:#000000;stroke-width:1;stroke-linecap:butt;stroke-linejoin:miter;stroke-miterlimit:10;stroke-opacity:1;stroke-dasharray:none" /></g><g
       transform="translate(116.4199,110.8896)"
       id="g3417"><path
         d="m 0,0 2.34,0 76.2,0 0.3,0"
         id="path3419"
         style="fill:none;stroke:#000000;stroke-width:1;stroke-linecap:butt;stroke-linejoin:miter;stroke-miterlimit:10;stroke-opacity:1;stroke-dasharray:none" /></g><g
       id="g3421"><g
         clip-path="url(#clipPath3425)"
         id="g3423"><g
           id="g3429"><g
             id="g3431" /><g
             id="g3437"><g
               clip-path="url(#clipPath3433)"
               id="g3439"><g
                 transform="translate(123.9697,103.5498)"
                 id="g3441"><path
                   d="m 0,0 -12.149,-76.5 -0.04,0.24 0,76.26 L 0,0 z"
                   id="path3443"
                   style="fill:#ffffff;fill-opacity:1;fill-rule:nonzero;stroke:none" /></g><g
                 transform="translate(111.7803,103.5498)"
                 id="g3445"><path
                   d="M 0,0 0,-76.26 -12.81,0 0,0 z"
                   id="path3447"
                   style="fill:#000000;fill-opacity:1;fill-rule:nonzero;stroke:none" /></g></g></g></g></g></g><g
       transform="translate(111.7803,103.5498)"
       id="g3449"><path
         d="M 0,0 12.189,0 0.04,-76.5 0,-76.26 -12.81,0 0,0 z"
         id="path3451"
         style="fill:none;stroke:#000000;stroke-width:1;stroke-linecap:butt;stroke-linejoin:miter;stroke-miterlimit:10;stroke-opacity:1;stroke-dasharray:none" /></g><g
       transform="translate(111.7803,105.8799)"
       id="g3453"><path
         d="m 0,0 0,-2.33 0,-76.26 0,-0.24"
         id="path3455"
         style="fill:none;stroke:#000000;stroke-width:1;stroke-linecap:butt;stroke-linejoin:miter;stroke-miterlimit:10;stroke-opacity:1;stroke-dasharray:none" /></g><g
       id="g3457"><g
         clip-path="url(#clipPath3461)"
         id="g3459"><g
           transform="translate(111.042,213.2485)"
           id="g3465"><path
             d="m 0,0 0.246,-1.028 c 0.229,-0.938 0.454,-1.758 0.677,-2.461 0.223,-0.703 0.794,-2.329 1.714,-4.878 0.088,0.322 0.263,1.037 0.527,2.144 0.34,1.442 0.565,2.347 0.677,2.716 0.328,1.084 0.644,1.881 0.949,2.391 0.305,0.51 0.645,0.876 1.02,1.098 0.375,0.223 0.799,0.334 1.274,0.334 0.381,0 0.673,-0.073 0.874,-0.219 0.203,-0.147 0.304,-0.323 0.304,-0.528 0,-0.146 -0.055,-0.275 -0.163,-0.386 -0.109,-0.112 -0.236,-0.167 -0.382,-0.167 -0.106,0 -0.229,0.029 -0.369,0.088 -0.293,0.117 -0.469,0.184 -0.528,0.202 -0.105,0.023 -0.219,0.035 -0.342,0.035 -0.288,0 -0.534,-0.097 -0.74,-0.29 C 5.375,-1.289 4.976,-2.142 4.539,-3.507 4.103,-4.872 3.547,-7.055 2.873,-10.055 l -0.299,-1.309 c -0.668,1.47 -1.119,2.513 -1.353,3.129 -0.317,0.826 -0.677,1.869 -1.08,3.129 l -0.967,3.041 c -0.117,-0.704 -0.391,-1.889 -0.822,-3.556 -0.431,-1.667 -0.687,-2.626 -0.769,-2.878 -0.27,-0.791 -0.558,-1.397 -0.866,-1.819 -0.307,-0.422 -0.644,-0.73 -1.01,-0.923 -0.367,-0.194 -0.769,-0.29 -1.209,-0.29 -0.551,0 -1.002,0.123 -1.353,0.369 -0.27,0.182 -0.405,0.413 -0.405,0.694 0,0.123 0.05,0.233 0.15,0.33 0.099,0.096 0.219,0.145 0.36,0.145 0.182,0 0.378,-0.097 0.589,-0.29 0.375,-0.346 0.718,-0.519 1.028,-0.519 0.334,0 0.662,0.15 0.985,0.448 0.48,0.458 0.943,1.416 1.388,2.875 0.539,1.763 1.058,4.001 1.556,6.714 -0.205,0 -0.598,-0.058 -1.178,-0.175 -0.58,-0.118 -1.065,-0.283 -1.454,-0.497 -0.39,-0.214 -0.689,-0.492 -0.897,-0.835 -0.208,-0.343 -0.312,-0.702 -0.312,-1.077 0,-0.187 0.026,-0.378 0.079,-0.571 0.035,-0.129 0.112,-0.287 0.229,-0.475 0.134,-0.216 0.202,-0.38 0.202,-0.492 0,-0.14 -0.051,-0.26 -0.154,-0.36 -0.103,-0.1 -0.23,-0.149 -0.382,-0.149 -0.223,0 -0.413,0.115 -0.572,0.347 -0.158,0.231 -0.237,0.584 -0.237,1.059 0,0.785 0.198,1.453 0.593,2.004 0.396,0.55 0.925,0.966 1.587,1.248 0.422,0.176 1.236,0.345 2.443,0.509 C -0.812,-0.17 -0.393,-0.094 0,0"
             id="path3467"
             style="fill:#000000;fill-opacity:1;fill-rule:nonzero;stroke:none" /></g><g
           transform="translate(15.1265,105.1064)"
           id="g3469"><path
             d="M 0,0 0.176,5.66 C 0.217,6.914 0.334,8.092 0.527,9.193 0.187,8.777 -0.24,8.156 -0.756,7.33 -2.297,4.852 -3.958,2.525 -5.739,0.352 -5.868,1.131 -5.972,2.042 -6.051,3.085 -6.13,4.128 -6.17,5.042 -6.17,5.827 c 0,1.108 0.104,1.991 0.312,2.65 0.208,0.659 0.602,1.381 1.182,2.167 -1.101,-0.123 -1.976,-0.472 -2.623,-1.046 -0.648,-0.575 -0.972,-1.163 -0.972,-1.767 0,-0.223 0.063,-0.448 0.189,-0.677 0.15,-0.275 0.225,-0.46 0.225,-0.553 0,-0.153 -0.049,-0.279 -0.146,-0.378 -0.098,-0.1 -0.218,-0.15 -0.359,-0.15 -0.189,0 -0.343,0.085 -0.46,0.255 -0.16,0.223 -0.24,0.51 -0.24,0.861 0,0.534 0.154,1.079 0.462,1.635 0.308,0.557 0.716,1.015 1.226,1.376 0.51,0.36 1.09,0.622 1.74,0.786 0.358,0.088 0.958,0.179 1.802,0.273 0.287,0.035 0.571,0.073 0.853,0.114 -1.272,-1.781 -1.908,-3.58 -1.908,-5.396 0,-0.566 0.045,-1.694 0.135,-3.384 0.345,0.416 0.658,0.816 0.938,1.201 0.193,0.269 0.695,1.015 1.507,2.237 1.309,1.987 2.287,3.387 2.936,4.199 0.46,0.563 0.98,1.087 1.559,1.574 C 1.625,9.595 1.343,6.423 1.343,2.288 l 2.208,2.731 c 0.592,0.738 1.191,1.598 1.797,2.579 0.607,0.982 1.006,1.765 1.2,2.351 0.123,0.381 0.184,0.741 0.184,1.081 0,0.334 -0.076,0.686 -0.228,1.055 -0.094,0.234 -0.141,0.404 -0.141,0.51 0,0.158 0.057,0.291 0.172,0.4 0.114,0.108 0.259,0.162 0.435,0.162 0.222,0 0.398,-0.099 0.527,-0.299 0.188,-0.269 0.281,-0.627 0.281,-1.072 0,-0.592 -0.203,-1.371 -0.611,-2.338 C 6.76,8.481 5.856,7.069 4.456,5.212 2.651,2.839 1.166,1.102 0,0"
             id="path3471"
             style="fill:#000000;fill-opacity:1;fill-rule:nonzero;stroke:none" /></g><g
           transform="translate(213.1973,114.2998)"
           id="g3473"><path
             d="m 0,0 -0.466,0 c 0.047,0.299 0.07,0.536 0.07,0.712 0,0.234 -0.098,0.388 -0.294,0.461 -0.197,0.074 -0.938,0.11 -2.222,0.11 l -1.284,-0.009 -0.967,-3.876 1.816,0 c 0.574,0 0.926,0.043 1.058,0.128 0.132,0.085 0.226,0.297 0.285,0.637 l 0.501,0 C -1.69,-2.546 -1.857,-3.325 -2.004,-4.175 l -0.448,0 c 0.029,0.276 0.044,0.489 0.044,0.642 0,0.064 -0.041,0.143 -0.123,0.237 -0.041,0.047 -0.117,0.079 -0.229,0.097 -0.158,0.029 -0.404,0.044 -0.739,0.044 l -1.803,0 c -0.519,-1.991 -1.059,-3.549 -1.619,-4.679 0.545,0.172 1.028,0.258 1.451,0.258 0.703,0 1.566,-0.111 2.586,-0.334 0.539,-0.123 0.905,-0.185 1.099,-0.185 0.259,0 0.467,0.065 0.625,0.193 0.158,0.128 0.237,0.274 0.237,0.437 0,0.094 -0.04,0.245 -0.12,0.455 -0.049,0.146 -0.073,0.283 -0.073,0.411 0,0.135 0.054,0.254 0.163,0.36 0.107,0.104 0.238,0.157 0.391,0.157 0.181,0 0.332,-0.07 0.453,-0.211 0.119,-0.141 0.179,-0.328 0.179,-0.562 0,-0.499 -0.218,-0.935 -0.655,-1.31 -0.436,-0.375 -1.013,-0.563 -1.728,-0.563 -0.375,0 -0.851,0.033 -1.425,0.097 -1.261,0.141 -2.223,0.211 -2.885,0.211 -0.868,0 -1.883,-0.07 -3.043,-0.211 l 0.139,0.491 c 0.695,0.192 1.104,0.332 1.228,0.422 0.124,0.09 0.227,0.223 0.31,0.397 0.28,0.556 0.644,1.672 1.093,3.345 0.447,1.674 0.901,3.442 1.364,5.303 -0.704,0 -1.37,-0.167 -1.998,-0.5 -0.627,-0.333 -1.117,-0.768 -1.469,-1.304 -0.353,-0.535 -0.528,-1.098 -0.528,-1.689 0,-0.251 0.024,-0.471 0.074,-0.658 0.05,-0.187 0.163,-0.45 0.339,-0.79 0.111,-0.204 0.167,-0.371 0.167,-0.5 0,-0.129 -0.054,-0.242 -0.162,-0.342 -0.108,-0.1 -0.24,-0.149 -0.397,-0.149 -0.227,0 -0.408,0.114 -0.542,0.342 -0.198,0.334 -0.297,0.788 -0.297,1.363 0,1.23 0.466,2.335 1.398,3.313 0.931,0.979 2.288,1.468 4.069,1.468 l 3.015,0 c 1.043,0 1.813,0.067 2.311,0.202 C 0.214,1.106 0.064,0.412 0,0"
             id="path3475"
             style="fill:#000000;fill-opacity:1;fill-rule:nonzero;stroke:none" /></g><g
           transform="translate(115.9238,15.8027)"
           id="g3477"><path
             d="m 0,0 -0.457,0 c 0.064,0.615 0.096,1.082 0.096,1.398 0,0.452 -0.121,0.807 -0.364,1.068 -0.243,0.261 -0.572,0.391 -0.986,0.391 -0.643,0 -1.205,-0.234 -1.684,-0.699 -0.479,-0.467 -0.718,-0.99 -0.718,-1.57 0,-0.311 0.064,-0.593 0.197,-0.845 0.131,-0.252 0.422,-0.604 0.871,-1.055 0.824,-0.809 1.365,-1.443 1.621,-1.901 0.258,-0.457 0.387,-0.902 0.387,-1.336 0,-0.639 -0.195,-1.256 -0.585,-1.847 -0.39,-0.592 -0.964,-1.081 -1.723,-1.465 -0.759,-0.384 -1.559,-0.577 -2.403,-0.577 -0.833,0 -1.534,0.217 -2.106,0.651 -0.571,0.433 -0.856,0.891 -0.856,1.371 0,0.258 0.074,0.473 0.224,0.643 0.149,0.169 0.32,0.253 0.514,0.253 0.199,0 0.363,-0.078 0.492,-0.236 0.082,-0.094 0.164,-0.305 0.246,-0.633 0.094,-0.398 0.208,-0.687 0.343,-0.866 0.135,-0.179 0.321,-0.325 0.558,-0.439 0.237,-0.115 0.497,-0.171 0.778,-0.171 0.838,0 1.571,0.283 2.198,0.847 0.627,0.567 0.939,1.193 0.939,1.879 0,0.235 -0.039,0.467 -0.118,0.7 -0.079,0.231 -0.224,0.494 -0.435,0.787 -0.146,0.199 -0.472,0.55 -0.976,1.054 -0.498,0.494 -0.811,0.83 -0.94,1.012 -0.181,0.264 -0.316,0.529 -0.404,0.797 -0.088,0.267 -0.133,0.531 -0.133,0.796 0,0.533 0.18,1.069 0.537,1.609 0.358,0.54 0.822,0.97 1.393,1.288 0.571,0.321 1.221,0.481 1.947,0.481 0.363,0 0.811,-0.057 1.344,-0.168 C 0.102,3.158 0.365,3.115 0.588,3.086 0.459,2.705 0.359,2.346 0.289,2.009 0.219,1.672 0.123,1.002 0,0"
             id="path3479"
             style="fill:#000000;fill-opacity:1;fill-rule:nonzero;stroke:none" /></g></g></g><g
       id="g3481"><g
         clip-path="url(#clipPath3485)"
         id="g3483"><g
           transform="translate(128.7178,110.8301)"
           id="g3489"><path
             d="m 0,0 c 0,-9.527 -7.723,-17.25 -17.25,-17.25 -9.526,0 -17.25,7.723 -17.25,17.25 0,9.527 7.724,17.25 17.25,17.25 C -7.723,17.25 0,9.527 0,0"
             id="path3491"
             style="fill:#ffffff;fill-opacity:1;fill-rule:nonzero;stroke:none" /></g><g
           transform="translate(128.7178,110.8301)"
           id="g3493"><path
             d="m 0,0 c 0,-9.527 -7.723,-17.25 -17.25,-17.25 -9.526,0 -17.25,7.723 -17.25,17.25 0,9.527 7.724,17.25 17.25,17.25 C -7.723,17.25 0,9.527 0,0 z"
             id="path3495"
             style="fill:none;stroke:#000000;stroke-width:1;stroke-linecap:butt;stroke-linejoin:miter;stroke-miterlimit:10;stroke-opacity:1;stroke-dasharray:none" /></g><g
           transform="translate(124.8145,110.4971)"
           id="g3497"><path
             d="m 0,0 c 0,-7.372 -5.976,-13.347 -13.347,-13.347 -7.371,0 -13.346,5.975 -13.346,13.347 0,7.371 5.975,13.347 13.346,13.347 C -5.976,13.347 0,7.371 0,0 z"
             id="path3499"
             style="fill:none;stroke:#000000;stroke-width:1;stroke-linecap:butt;stroke-linejoin:miter;stroke-miterlimit:10;stroke-opacity:1;stroke-dasharray:none" /></g><g
           transform="translate(119.8643,110.6641)"
           id="g3501"><path
             d="m 0,0 c 0,-4.638 -3.76,-8.396 -8.396,-8.396 -4.637,0 -8.396,3.758 -8.396,8.396 0,4.636 3.759,8.396 8.396,8.396 C -3.76,8.396 0,4.636 0,0 z"
             id="path3503"
             style="fill:none;stroke:#000000;stroke-width:1;stroke-linecap:butt;stroke-linejoin:miter;stroke-miterlimit:10;stroke-opacity:1;stroke-dasharray:none" /></g></g></g></g></svg>